<?xml version="1.0" encoding="utf-8"?>
<!-- Generator: Adobe Illustrator 19.1.0, SVG Export Plug-In . SVG Version: 6.00 Build 0)  -->
<svg version="1.1" id="Capa_1" xmlns="http://www.w3.org/2000/svg" xmlns:xlink="http://www.w3.org/1999/xlink" x="0px" y="0px"
	 viewBox="-471 607.6 50 60" style="enable-background:new -471 607.6 50 60;" xml:space="preserve">
<style type="text/css">
	.st0{fill:#FFFFFF;}
	.st1{fill:#0071BC;}
</style>
<g>
	<path class="st0" d="M-440.7,633.2c-3.1-1.1-2.9-0.6-2.9-2.7c0-1.4,0.7-0.6,1.1-3.2c0.2-1,0.3-0.3,0.7-2c0.2-0.9-0.1-0.9-0.1-1.3
		c0-0.4,0.1-0.8,0.2-1.6c0.1-1-0.9-3.7-4.3-3.7s-4.4,2.7-4.3,3.8c0.1,0.8,0.1,1.2,0.2,1.6c0.1,0.4-0.3,0.5-0.1,1.3
		c0.4,1.6,0.5,1,0.7,2c0.4,2.6,1.1,1.8,1.1,3.2c0,2.1,0.2,1.6-2.9,2.7c-3.2,1.2-3.9,1.7-4,2.2c-0.1,0.7-0.1,1.9-0.1,1.9h9.4h9.4
		c0,0,0-1.2-0.1-1.9C-436.8,634.9-437.5,634.3-440.7,633.2z"/>
	<path class="st1" d="M-446,612.6c-8.6,0-15.5,7-15.5,15.6c0,14.9,15.5,34.4,15.5,34.4s15.5-19.5,15.5-34.4
		C-430.5,619.6-437.4,612.6-446,612.6z M-446,637.3h-9.4c0,0,0-1.2,0.1-1.9c0.1-0.5,0.8-1.2,4-2.3c3.1-1.1,2.9-0.6,2.9-2.7
		c0-1.4-0.7-0.6-1.1-3.1c-0.2-1-0.3-0.3-0.7-2c-0.2-0.9,0.1-0.9,0.1-1.3c0-0.4-0.1-0.8-0.2-1.6c-0.1-1,0.9-3.8,4.3-3.8
		s4.4,2.7,4.3,3.7c-0.1,0.8-0.1,1.2-0.2,1.6c0,0.4,0.3,0.5,0.1,1.3c-0.4,1.6-0.5,1-0.7,2c-0.4,2.6-1.1,1.8-1.1,3.2
		c0,2.1-0.2,1.5,2.9,2.7c3.2,1.2,3.9,1.8,4,2.3c0.1,0.7,0.1,1.9,0.1,1.9H-446z"/>
</g>
</svg>
