<?xml version="1.0" encoding="utf-8"?>
<!-- Generator: Adobe Illustrator 19.1.0, SVG Export Plug-In . SVG Version: 6.00 Build 0)  -->
<svg version="1.1" id="Capa_1" xmlns="http://www.w3.org/2000/svg" xmlns:xlink="http://www.w3.org/1999/xlink" x="0px" y="0px"
	 viewBox="-471 607.6 50 60" style="enable-background:new -471 607.6 50 60;" xml:space="preserve">
<style type="text/css">
	.st0{fill:#FFFFFF;}
	.st1{fill:#43A047;}
</style>
<g>
	<path class="st0" d="M-436.6,623.6h-5.4v-1.2c0-1.2-0.6-1.8-1.8-1.8h-3.8c-1.2,0-2.4,0.7-2.4,1.8v1.2h-4.8c-0.2,0-0.2,0.3-0.2,0.5
		v3.5h9h1h9v-3.5C-436,623.9-436.4,623.6-436.6,623.6z M-443,622.6L-443,622.6v1h-5v-1l0,0l0,0c0-0.4-0.1-0.9,0.4-0.9h3.8
		C-443.4,621.6-443,622.1-443,622.6C-443,622.5-443,622.6-443,622.6z"/>
	<path class="st0" d="M-446,628.6h-9v7.6c0,0.2,0,0.4,0.2,0.4h18.2c0.2,0,0.6-0.2,0.6-0.4v-7.6h-9H-446z"/>
	<path class="st1" d="M-443.8,621.6h-3.8c-0.4,0-0.4,0.5-0.4,0.9l0,0l0,0v1h5v-1l0,0l0,0C-443,622.1-443.4,621.6-443.8,621.6z"/>
	<path class="st1" d="M-445.7,612.6c-8.6,0-15.6,7-15.6,15.6c0,14.9,15.6,34.4,15.6,34.4s15.5-19.5,15.5-34.4
		C-430.2,619.6-437.2,612.6-445.7,612.6z M-436,636.2c0,0.2-0.4,0.4-0.6,0.4h-18.2c-0.2,0-0.2-0.2-0.2-0.4v-7.6h9h1h9V636.2z
		 M-436,627.6h-9h-1h-9v-3.5c0-0.2,0-0.5,0.2-0.5h4.8v-1.2c0-1.2,1.1-1.8,2.4-1.8h3.8c1.2,0,1.8,0.7,1.8,1.8v1.2h5.4
		c0.2,0,0.6,0.3,0.6,0.5C-436,624.1-436,627.6-436,627.6z"/>
</g>
</svg>
