<?xml version="1.0" encoding="utf-8"?>
<!-- Generator: Adobe Illustrator 19.1.0, SVG Export Plug-In . SVG Version: 6.00 Build 0)  -->
<svg version="1.1" id="Capa_1" xmlns="http://www.w3.org/2000/svg" xmlns:xlink="http://www.w3.org/1999/xlink" x="0px" y="0px"
	 viewBox="-466 607.6 60 60" style="enable-background:new -466 607.6 60 60;" xml:space="preserve">
<style type="text/css">
	.st0{fill:#FF001B;}
	.st1{fill:#FEFDFE;}
</style>
<g>
	<rect x="-466" y="607.6" class="st0" width="60" height="60"/>
	<g>
		<path class="st1" d="M-455.3,626.4v3.2c0,0.5,0.4,0.9,0.9,0.9h3.6c0.5,0,0.9,0.4,0.9,0.9v17.4c0,0.5,0.4,0.9,0.9,0.9h4.6
			c0.5,0,0.9-0.4,0.9-0.9v-17.4c0-0.5,0.4-0.9,0.9-0.9h13.5c0.5,0,0.9-0.4,0.9-0.9v-3.1c0-0.5-0.4-0.9-0.9-0.9h-25.3
			C-454.9,625.5-455.3,625.9-455.3,626.4z"/>
		<g>
			<path class="st1" d="M-425.1,626.9l0.9,13.3c0,0.6,0.6,1.2,1.2,1.2h1.6c0.6,0,1.2-0.5,1.2-1.1l1-13.3c0.1-0.7-0.5-1.3-1.2-1.3
				h-3.4C-424.6,625.5-425.2,626.1-425.1,626.9z"/>
			<path class="st1" d="M-425.3,645v3.4c0,0.7,0.6,1.2,1.2,1.2h3.4c0.7,0,1.2-0.6,1.2-1.2V645c0-0.7-0.6-1.2-1.2-1.2h-3.3
				C-424.7,643.8-425.3,644.3-425.3,645z"/>
		</g>
	</g>
</g>
</svg>
