<?xml version="1.0" encoding="utf-8"?>
<!-- Generator: Adobe Illustrator 19.1.0, SVG Export Plug-In . SVG Version: 6.00 Build 0)  -->
<svg version="1.1" id="Capa_1" xmlns="http://www.w3.org/2000/svg" xmlns:xlink="http://www.w3.org/1999/xlink" x="0px" y="0px"
	 viewBox="-471 607.6 50 60" style="enable-background:new -471 607.6 50 60;" xml:space="preserve">
<style type="text/css">
	.st0{fill:#FFFFFF;}
	.st1{fill:#B71C1C;}
</style>
<g>
	<path class="st0" d="M-440.2,633c-3.1-1.1-2.9-0.6-2.9-2.7c0-1.4,0.7-0.6,1.1-3.2c0.2-1,0.3-0.3,0.7-2c0.2-0.9-0.1-0.9-0.1-1.3
		c0-0.4,0.1-0.8,0.2-1.6c0.1-1-0.9-3.7-4.3-3.7s-4.4,2.7-4.3,3.8c0.1,0.8,0.1,1.2,0.2,1.6c0.1,0.4-0.3,0.5-0.1,1.3
		c0.4,1.6,0.5,1,0.7,2c0.4,2.6,1.1,1.8,1.1,3.2c0,2.1,0.2,1.6-2.9,2.7c-3.2,1.2-3.9,1.9-4,2.5c-0.2,0.6-0.2,2-0.2,2h9.4h9.4
		c0,0,0-1.4-0.1-2.1C-436.3,635-437,634.2-440.2,633z"/>
	<path class="st1" d="M-445.5,612.4c-8.6,0-15.5,7-15.5,15.6c0,14.9,15.5,34.4,15.5,34.4S-430,643-430,628.1
		C-430,619.4-436.9,612.4-445.5,612.4z M-445.5,637.6h-9.5c0,0,0-1.4,0.1-2.1c0.1-0.5,0.8-1.3,4-2.5c3.1-1.1,2.9-0.6,2.9-2.7
		c0-1.4-0.7-0.6-1.1-3.2c-0.2-1-0.3-0.4-0.7-2c-0.2-0.9,0.1-0.9,0.1-1.3c0-0.4-0.1-0.8-0.2-1.6c-0.1-1,0.9-3.8,4.3-3.8
		s4.4,2.7,4.3,3.7c-0.1,0.8-0.1,1.2-0.2,1.6c0,0.4,0.3,0.5,0.1,1.3c-0.4,1.6-0.5,1-0.7,2c-0.4,2.6-1.1,1.8-1.1,3.2
		c0,2.1-0.2,1.5,2.9,2.7c3.2,1.2,3.9,2,4,2.5c0.1,0.7,0.1,2.1,0.1,2.1h-9.3V637.6z"/>
</g>
</svg>
